<svg viewBox="0 0 64 64" fill="none" xmlns="http://www.w3.org/2000/svg">
  <circle cx="32" cy="32" r="32" fill="#FFFFFF" />
  
  <g stroke="#2563eb" stroke-width="2.5" stroke-linecap="round" opacity="0.6">
    <path d="M8 36 L20 18 L32 32 L44 20 L56 38" />
    <path d="M20 18 L32 10" />
    <path d="M32 32 L32 54" />
    <path d="M44 20 L56 12" />
  </g>

  <path 
    d="M4 36 C 12 36, 16 18, 24 18 C 32 18, 36 42, 44 32 C 52 22, 56 38, 60 38" 
    stroke="#2563eb" 
    stroke-width="5" 
    stroke-linecap="round"
    fill="none"
  />

  <g fill="#2563eb">
    <circle cx="8" cy="36" r="2.5" />
    <circle cx="20" cy="18" r="2.5" />
    <circle cx="32" cy="32" r="3.5" />
    <circle cx="44" cy="20" r="2.5" />
    <circle cx="56" cy="38" r="2.5" />
  </g>
</svg>